<?xml version="1.0" standalone="no"?>
<!DOCTYPE svg PUBLIC "-//W3C//DTD SVG 20010904//EN"
 "http://www.w3.org/TR/2001/REC-SVG-20010904/DTD/svg10.dtd">
<svg version="1.0" xmlns="http://www.w3.org/2000/svg"
 width="1025.000000pt" height="1050.000000pt" viewBox="0 0 1025.000000 1050.000000"
 preserveAspectRatio="xMidYMid meet">

<g transform="translate(0.000000,1050.000000) scale(0.100000,-0.100000)"
fill="#000000" stroke="none">
<path d="M3325 9921 l-520 -6 -69 -35 c-85 -44 -183 -132 -218 -197 -60 -109
-58 -67 -58 -1254 0 -982 -2 -1087 -16 -1093 -9 -3 -183 -6 -388 -6 -409 0
-511 -8 -601 -48 -160 -70 -248 -167 -318 -349 l-22 -58 -5 -2615 -5 -2615
-120 -7 c-128 -6 -184 -22 -263 -72 -171 -108 -240 -320 -178 -551 37 -139
131 -308 227 -410 94 -100 261 -193 424 -238 l80 -22 4085 0 c3954 0 4087 1
4160 19 85 21 234 87 312 140 109 72 219 200 284 329 82 162 98 449 34 583
-43 88 -155 172 -279 208 -30 9 -91 16 -135 16 -45 0 -87 4 -94 8 -10 7 -13
515 -15 2608 l-2 2599 -26 67 c-56 145 -157 273 -256 325 -32 17 -89 41 -128
54 -68 22 -83 23 -500 27 -265 2 -434 7 -440 13 -6 7 -12 402 -15 1127 l-5
1117 -35 70 c-67 134 -204 236 -345 256 -72 11 -3806 19 -4550 10z m4530 -198
c28 -3 58 -10 68 -15 40 -20 100 -84 125 -132 l27 -51 0 -3005 0 -3005 -27
-50 c-35 -68 -115 -141 -164 -152 -22 -4 -1166 -8 -2544 -8 -2344 0 -2507 1
-2536 17 -44 24 -120 112 -136 156 -11 30 -13 583 -13 3043 l0 3005 30 60 c24
46 44 68 89 99 l58 40 776 6 c908 7 4174 1 4247 -8z m-5407 -2585 c18 -18 17
-352 -1 -366 -8 -7 -115 -12 -298 -14 l-285 -3 -52 -34 c-59 -37 -104 -96
-121 -156 -9 -30 -11 -587 -9 -2190 3 -2100 3 -2151 22 -2189 26 -52 91 -114
146 -139 45 -20 47 -20 3515 -21 3434 -1 3470 -1 3510 19 62 30 127 102 150
165 20 54 20 80 20 2195 l0 2140 -21 46 c-33 71 -88 125 -150 149 -50 18 -77
20 -324 20 -256 0 -270 1 -280 19 -11 21 -14 288 -4 340 l7 31 407 0 c456 0
458 0 566 -70 96 -63 154 -140 175 -230 11 -46 13 -5190 2 -5201 -4 -4 -1831
-9 -4060 -11 -3077 -2 -4055 0 -4064 9 -16 16 -15 5132 1 5195 33 123 170 262
290 294 64 18 841 19 858 2z m6349 -574 c18 -3 41 -16 53 -31 20 -26 20 -26
20 -2132 0 -1664 -3 -2111 -13 -2131 -7 -14 -28 -33 -47 -42 -33 -17 -228 -18
-3449 -18 l-3415 0 -33 23 c-21 14 -37 35 -42 57 -13 48 -22 2691 -13 3530 5
517 10 690 20 707 20 36 73 43 328 43 211 0 243 -2 248 -16 3 -9 6 -687 6
-1507 0 -973 4 -1515 10 -1557 30 -189 194 -338 396 -361 108 -12 4922 -11
5008 2 187 26 343 171 376 348 6 34 10 595 10 1567 0 1402 1 1514 17 1522 16
10 456 6 520 -4z m-4665 -5121 c10 -9 18 -20 18 -26 0 -24 143 -176 237 -252
122 -97 229 -153 385 -201 166 -51 246 -59 593 -59 343 0 422 9 605 67 231 73
400 189 568 393 37 44 71 83 77 88 11 8 2955 6 3131 -3 101 -5 114 -7 152 -34
54 -37 99 -106 108 -165 19 -122 -41 -335 -126 -447 -57 -75 -160 -158 -255
-204 -155 -76 224 -70 -4272 -70 -4456 0 -4106 -5 -4245 64 -246 124 -413 385
-395 618 6 74 24 117 71 166 40 44 78 63 141 72 27 4 756 8 1619 9 1447 1
1571 0 1588 -16z m2238 3 c0 -29 -196 -179 -307 -235 -226 -113 -323 -131
-711 -131 -280 0 -303 2 -407 25 -127 29 -189 52 -298 112 -109 60 -172 105
-241 171 -52 49 -57 57 -40 63 10 4 466 8 1012 8 793 -1 992 -3 992 -13z"/>
<path d="M5060 8510 l-325 -5 -255 -126 c-140 -69 -295 -145 -345 -168 -186
-88 -419 -209 -441 -230 -74 -72 -71 -156 16 -346 157 -347 184 -391 252 -426
50 -26 90 -21 238 27 97 31 106 32 118 17 9 -13 12 -172 12 -715 0 -563 3
-705 13 -731 8 -18 33 -49 56 -69 39 -36 45 -38 109 -38 37 0 447 0 912 0
l844 1 42 24 c23 14 53 42 66 62 l23 38 3 716 c2 553 5 719 15 727 8 7 48 2
132 -19 267 -65 283 -54 434 302 57 133 108 257 113 275 7 27 4 44 -20 97
l-29 64 -224 114 c-123 63 -278 139 -344 169 -66 31 -172 83 -235 115 -63 33
-124 64 -135 69 -139 63 -104 58 -425 60 -162 1 -441 -1 -620 -4z m720 -204
c0 -16 -72 -78 -146 -124 -106 -67 -262 -97 -374 -73 -119 26 -338 164 -315
200 4 8 139 11 421 11 349 0 414 -2 414 -14z m-1018 -59 c25 -53 123 -161 185
-204 212 -149 531 -166 761 -42 42 22 92 54 111 71 49 42 118 125 142 171 11
20 25 37 33 37 20 0 119 -47 524 -247 205 -101 375 -190 378 -198 3 -8 -10
-42 -28 -77 -19 -35 -61 -121 -93 -193 -32 -71 -64 -136 -71 -144 -10 -11 -40
-7 -182 28 -93 23 -192 41 -220 41 -47 0 -51 -2 -71 -36 -21 -35 -21 -41 -21
-799 0 -600 -3 -765 -12 -772 -13 -8 -1667 -5 -1680 4 -5 2 -8 345 -8 761 0
744 -3 820 -32 838 -30 19 -149 -5 -328 -65 -51 -18 -100 -29 -107 -26 -15 5
-87 152 -127 258 -13 34 -38 91 -55 125 -24 47 -29 67 -21 76 5 7 76 44 158
82 81 37 273 130 427 206 154 75 289 137 301 138 13 0 26 -11 36 -33z"/>
<path d="M4109 5283 c-61 -9 -62 -154 -1 -170 15 -4 662 -7 1437 -7 1072 0
1415 2 1431 12 16 8 23 25 28 66 9 70 -2 91 -51 100 -41 6 -2800 6 -2844 -1z"/>
<path d="M4695 4703 c-16 -2 -36 -12 -42 -21 -17 -22 -16 -114 1 -138 14 -19
35 -19 886 -19 761 0 872 2 880 15 15 24 24 122 13 139 -5 9 -21 19 -34 22
-25 7 -1653 9 -1704 2z"/>
<path d="M7480 1073 c-25 -9 -40 -35 -40 -67 1 -98 21 -106 242 -105 95 1 184
4 198 8 53 15 61 148 9 162 -28 8 -387 10 -409 2z"/>
<path d="M8120 1060 c-30 -30 -27 -99 5 -134 l25 -27 196 3 c182 3 197 4 210
23 21 28 27 60 20 99 -9 50 -38 56 -252 56 -171 0 -185 -1 -204 -20z"/>
<path d="M8779 1067 c-47 -36 -47 -96 0 -141 l28 -27 192 3 c191 3 192 3 212
28 42 55 32 120 -23 139 -44 16 -388 14 -409 -2z"/>
</g>
</svg>
